<mxfile host="app.diagrams.net" modified="2024-06-10T20:21:27.760Z" agent="Mozilla/5.0 (Macintosh; Intel Mac OS X 10_15_7) AppleWebKit/537.36 (KHTML, like Gecko) Chrome/124.0.0.0 Safari/537.36" etag="VQD-OGBzFP4ortH5yIeM" version="24.5.2" type="device">
  <diagram name="Page-1" id="pugEUD34ADWXKRA1LsCm">
    <mxGraphModel dx="2284" dy="795" grid="1" gridSize="10" guides="1" tooltips="1" connect="1" arrows="1" fold="1" page="1" pageScale="1" pageWidth="850" pageHeight="1100" math="0" shadow="0">
      <root>
        <mxCell id="0" />
        <mxCell id="1" parent="0" />
        <mxCell id="9KCZVOldgZEE5MTUfetc-2" value="" style="endArrow=classic;html=1;rounded=0;strokeWidth=3;fillColor=#dae8fc;strokeColor=#6c8ebf;fontSize=18;labelPosition=center;verticalLabelPosition=bottom;align=center;verticalAlign=top;" parent="1" source="9KCZVOldgZEE5MTUfetc-11" edge="1">
          <mxGeometry width="50" height="50" relative="1" as="geometry">
            <mxPoint x="40" y="115" as="sourcePoint" />
            <mxPoint x="780" y="120" as="targetPoint" />
          </mxGeometry>
        </mxCell>
        <mxCell id="9KCZVOldgZEE5MTUfetc-4" value="" style="endArrow=classic;html=1;rounded=0;strokeWidth=3;fillColor=#dae8fc;strokeColor=#6c8ebf;fontSize=18;" parent="1" target="9KCZVOldgZEE5MTUfetc-3" edge="1">
          <mxGeometry width="50" height="50" relative="1" as="geometry">
            <mxPoint x="20" y="120" as="sourcePoint" />
            <mxPoint x="370" y="115" as="targetPoint" />
          </mxGeometry>
        </mxCell>
        <mxCell id="9KCZVOldgZEE5MTUfetc-3" value="" style="ellipse;whiteSpace=wrap;html=1;aspect=fixed;fontSize=18;fillColor=#dae8fc;strokeColor=#6c8ebf;labelPosition=center;verticalLabelPosition=bottom;align=center;verticalAlign=top;" parent="1" vertex="1">
          <mxGeometry x="150" y="105" width="30" height="30" as="geometry" />
        </mxCell>
        <mxCell id="9KCZVOldgZEE5MTUfetc-6" value="" style="endArrow=classic;html=1;rounded=0;strokeWidth=3;fillColor=#dae8fc;strokeColor=#6c8ebf;fontSize=18;labelPosition=center;verticalLabelPosition=bottom;align=center;verticalAlign=top;" parent="1" source="9KCZVOldgZEE5MTUfetc-3" target="9KCZVOldgZEE5MTUfetc-5" edge="1">
          <mxGeometry width="50" height="50" relative="1" as="geometry">
            <mxPoint x="180" y="120" as="sourcePoint" />
            <mxPoint x="370" y="120" as="targetPoint" />
          </mxGeometry>
        </mxCell>
        <mxCell id="9KCZVOldgZEE5MTUfetc-5" value="" style="ellipse;whiteSpace=wrap;html=1;aspect=fixed;fontSize=18;fillColor=#dae8fc;strokeColor=#6c8ebf;labelPosition=center;verticalLabelPosition=bottom;align=center;verticalAlign=top;" parent="1" vertex="1">
          <mxGeometry x="320" y="105" width="30" height="30" as="geometry" />
        </mxCell>
        <mxCell id="9KCZVOldgZEE5MTUfetc-8" value="" style="endArrow=classic;html=1;rounded=0;strokeWidth=3;fillColor=#dae8fc;strokeColor=#6c8ebf;fontSize=18;labelPosition=center;verticalLabelPosition=bottom;align=center;verticalAlign=top;" parent="1" source="9KCZVOldgZEE5MTUfetc-5" target="9KCZVOldgZEE5MTUfetc-7" edge="1">
          <mxGeometry width="50" height="50" relative="1" as="geometry">
            <mxPoint x="350" y="120" as="sourcePoint" />
            <mxPoint x="480" y="120" as="targetPoint" />
          </mxGeometry>
        </mxCell>
        <mxCell id="9KCZVOldgZEE5MTUfetc-7" value="" style="ellipse;whiteSpace=wrap;html=1;aspect=fixed;fontSize=18;fillColor=#dae8fc;strokeColor=#6c8ebf;labelPosition=center;verticalLabelPosition=bottom;align=center;verticalAlign=top;" parent="1" vertex="1">
          <mxGeometry x="390" y="105" width="30" height="30" as="geometry" />
        </mxCell>
        <mxCell id="9KCZVOldgZEE5MTUfetc-10" value="" style="endArrow=classic;html=1;rounded=0;strokeWidth=3;fillColor=#dae8fc;strokeColor=#6c8ebf;fontSize=18;labelPosition=center;verticalLabelPosition=bottom;align=center;verticalAlign=top;" parent="1" source="9KCZVOldgZEE5MTUfetc-7" target="9KCZVOldgZEE5MTUfetc-9" edge="1">
          <mxGeometry width="50" height="50" relative="1" as="geometry">
            <mxPoint x="420" y="120" as="sourcePoint" />
            <mxPoint x="670" y="120" as="targetPoint" />
          </mxGeometry>
        </mxCell>
        <mxCell id="9KCZVOldgZEE5MTUfetc-9" value="" style="ellipse;whiteSpace=wrap;html=1;aspect=fixed;fontSize=18;fillColor=#dae8fc;strokeColor=#6c8ebf;labelPosition=center;verticalLabelPosition=bottom;align=center;verticalAlign=top;" parent="1" vertex="1">
          <mxGeometry x="460" y="105" width="30" height="30" as="geometry" />
        </mxCell>
        <mxCell id="9KCZVOldgZEE5MTUfetc-12" value="" style="endArrow=classic;html=1;rounded=0;strokeWidth=3;fillColor=#dae8fc;strokeColor=#6c8ebf;fontSize=18;labelPosition=center;verticalLabelPosition=bottom;align=center;verticalAlign=top;" parent="1" source="9KCZVOldgZEE5MTUfetc-9" target="9KCZVOldgZEE5MTUfetc-11" edge="1">
          <mxGeometry width="50" height="50" relative="1" as="geometry">
            <mxPoint x="490" y="120" as="sourcePoint" />
            <mxPoint x="670" y="120" as="targetPoint" />
          </mxGeometry>
        </mxCell>
        <mxCell id="9KCZVOldgZEE5MTUfetc-11" value="" style="ellipse;whiteSpace=wrap;html=1;aspect=fixed;fontSize=18;fillColor=#dae8fc;strokeColor=#6c8ebf;labelPosition=center;verticalLabelPosition=bottom;align=center;verticalAlign=top;" parent="1" vertex="1">
          <mxGeometry x="620" y="105" width="30" height="30" as="geometry" />
        </mxCell>
        <mxCell id="9KCZVOldgZEE5MTUfetc-13" value="" style="endArrow=classic;html=1;rounded=0;strokeWidth=3;fillColor=#f8cecc;strokeColor=#b85450;fontSize=18;labelPosition=center;verticalLabelPosition=bottom;align=center;verticalAlign=top;" parent="1" source="9KCZVOldgZEE5MTUfetc-23" edge="1">
          <mxGeometry width="50" height="50" relative="1" as="geometry">
            <mxPoint x="40" y="235" as="sourcePoint" />
            <mxPoint x="780" y="240" as="targetPoint" />
          </mxGeometry>
        </mxCell>
        <mxCell id="9KCZVOldgZEE5MTUfetc-14" value="" style="endArrow=classic;html=1;rounded=0;strokeWidth=3;fillColor=#f8cecc;strokeColor=#b85450;fontSize=18;" parent="1" target="9KCZVOldgZEE5MTUfetc-15" edge="1">
          <mxGeometry width="50" height="50" relative="1" as="geometry">
            <mxPoint x="20" y="240" as="sourcePoint" />
            <mxPoint x="370" y="235" as="targetPoint" />
          </mxGeometry>
        </mxCell>
        <mxCell id="9KCZVOldgZEE5MTUfetc-15" value="" style="ellipse;whiteSpace=wrap;html=1;aspect=fixed;fontSize=18;fillColor=#f8cecc;strokeColor=#b85450;labelPosition=center;verticalLabelPosition=bottom;align=center;verticalAlign=top;" parent="1" vertex="1">
          <mxGeometry x="250" y="225" width="30" height="30" as="geometry" />
        </mxCell>
        <mxCell id="9KCZVOldgZEE5MTUfetc-16" value="" style="endArrow=classic;html=1;rounded=0;strokeWidth=3;fillColor=#f8cecc;strokeColor=#b85450;fontSize=18;labelPosition=center;verticalLabelPosition=bottom;align=center;verticalAlign=top;" parent="1" source="9KCZVOldgZEE5MTUfetc-15" target="9KCZVOldgZEE5MTUfetc-17" edge="1">
          <mxGeometry width="50" height="50" relative="1" as="geometry">
            <mxPoint x="180" y="240" as="sourcePoint" />
            <mxPoint x="370" y="240" as="targetPoint" />
          </mxGeometry>
        </mxCell>
        <mxCell id="9KCZVOldgZEE5MTUfetc-17" value="" style="ellipse;whiteSpace=wrap;html=1;aspect=fixed;fontSize=18;fillColor=#f8cecc;strokeColor=#b85450;labelPosition=center;verticalLabelPosition=bottom;align=center;verticalAlign=top;" parent="1" vertex="1">
          <mxGeometry x="310" y="225" width="30" height="30" as="geometry" />
        </mxCell>
        <mxCell id="9KCZVOldgZEE5MTUfetc-18" value="" style="endArrow=classic;html=1;rounded=0;strokeWidth=3;fillColor=#f8cecc;strokeColor=#b85450;entryX=0;entryY=0.5;entryDx=0;entryDy=0;fontSize=18;labelPosition=center;verticalLabelPosition=bottom;align=center;verticalAlign=top;" parent="1" source="9KCZVOldgZEE5MTUfetc-17" target="9KCZVOldgZEE5MTUfetc-21" edge="1">
          <mxGeometry width="50" height="50" relative="1" as="geometry">
            <mxPoint x="350" y="240" as="sourcePoint" />
            <mxPoint x="390" y="240" as="targetPoint" />
          </mxGeometry>
        </mxCell>
        <mxCell id="9KCZVOldgZEE5MTUfetc-21" value="" style="ellipse;whiteSpace=wrap;html=1;aspect=fixed;fontSize=18;fillColor=#f8cecc;strokeColor=#b85450;labelPosition=center;verticalLabelPosition=bottom;align=center;verticalAlign=top;" parent="1" vertex="1">
          <mxGeometry x="470" y="225" width="30" height="30" as="geometry" />
        </mxCell>
        <mxCell id="9KCZVOldgZEE5MTUfetc-22" value="" style="endArrow=classic;html=1;rounded=0;strokeWidth=3;fillColor=#f8cecc;strokeColor=#b85450;fontSize=18;labelPosition=center;verticalLabelPosition=bottom;align=center;verticalAlign=top;" parent="1" source="9KCZVOldgZEE5MTUfetc-68" target="9KCZVOldgZEE5MTUfetc-23" edge="1">
          <mxGeometry width="50" height="50" relative="1" as="geometry">
            <mxPoint x="490" y="240" as="sourcePoint" />
            <mxPoint x="670" y="240" as="targetPoint" />
          </mxGeometry>
        </mxCell>
        <mxCell id="9KCZVOldgZEE5MTUfetc-23" value="" style="ellipse;whiteSpace=wrap;html=1;aspect=fixed;fontSize=18;fillColor=#f8cecc;strokeColor=#b85450;labelPosition=center;verticalLabelPosition=bottom;align=center;verticalAlign=top;" parent="1" vertex="1">
          <mxGeometry x="710" y="225" width="30" height="30" as="geometry" />
        </mxCell>
        <mxCell id="9KCZVOldgZEE5MTUfetc-35" value="" style="endArrow=classic;html=1;rounded=0;strokeWidth=3;fillColor=#d5e8d4;strokeColor=#82b366;fontSize=18;labelPosition=center;verticalLabelPosition=bottom;align=center;verticalAlign=top;" parent="1" source="9KCZVOldgZEE5MTUfetc-74" edge="1">
          <mxGeometry width="50" height="50" relative="1" as="geometry">
            <mxPoint x="40" y="355" as="sourcePoint" />
            <mxPoint x="780" y="360" as="targetPoint" />
          </mxGeometry>
        </mxCell>
        <mxCell id="9KCZVOldgZEE5MTUfetc-36" value="" style="endArrow=classic;html=1;rounded=0;strokeWidth=3;fillColor=#d5e8d4;strokeColor=#82b366;fontSize=18;" parent="1" target="9KCZVOldgZEE5MTUfetc-37" edge="1">
          <mxGeometry width="50" height="50" relative="1" as="geometry">
            <mxPoint x="20" y="360" as="sourcePoint" />
            <mxPoint x="370" y="355" as="targetPoint" />
          </mxGeometry>
        </mxCell>
        <mxCell id="9KCZVOldgZEE5MTUfetc-37" value="" style="ellipse;whiteSpace=wrap;html=1;aspect=fixed;fontSize=18;fillColor=#d5e8d4;strokeColor=#82b366;labelPosition=center;verticalLabelPosition=bottom;align=center;verticalAlign=top;" parent="1" vertex="1">
          <mxGeometry x="70" y="345" width="30" height="30" as="geometry" />
        </mxCell>
        <mxCell id="9KCZVOldgZEE5MTUfetc-38" value="" style="endArrow=classic;html=1;rounded=0;strokeWidth=3;fillColor=#d5e8d4;strokeColor=#82b366;fontSize=18;labelPosition=center;verticalLabelPosition=bottom;align=center;verticalAlign=top;" parent="1" source="9KCZVOldgZEE5MTUfetc-37" target="9KCZVOldgZEE5MTUfetc-39" edge="1">
          <mxGeometry width="50" height="50" relative="1" as="geometry">
            <mxPoint x="180" y="360" as="sourcePoint" />
            <mxPoint x="370" y="360" as="targetPoint" />
          </mxGeometry>
        </mxCell>
        <mxCell id="9KCZVOldgZEE5MTUfetc-39" value="" style="ellipse;whiteSpace=wrap;html=1;aspect=fixed;fontSize=18;fillColor=#d5e8d4;strokeColor=#82b366;labelPosition=center;verticalLabelPosition=bottom;align=center;verticalAlign=top;" parent="1" vertex="1">
          <mxGeometry x="120" y="345" width="30" height="30" as="geometry" />
        </mxCell>
        <mxCell id="9KCZVOldgZEE5MTUfetc-40" value="" style="endArrow=classic;html=1;rounded=0;strokeWidth=3;fillColor=#d5e8d4;strokeColor=#82b366;fontSize=18;labelPosition=center;verticalLabelPosition=bottom;align=center;verticalAlign=top;" parent="1" source="9KCZVOldgZEE5MTUfetc-39" target="9KCZVOldgZEE5MTUfetc-41" edge="1">
          <mxGeometry width="50" height="50" relative="1" as="geometry">
            <mxPoint x="350" y="360" as="sourcePoint" />
            <mxPoint x="480" y="360" as="targetPoint" />
          </mxGeometry>
        </mxCell>
        <mxCell id="9KCZVOldgZEE5MTUfetc-41" value="" style="ellipse;whiteSpace=wrap;html=1;aspect=fixed;fontSize=18;fillColor=#d5e8d4;strokeColor=#82b366;labelPosition=center;verticalLabelPosition=bottom;align=center;verticalAlign=top;" parent="1" vertex="1">
          <mxGeometry x="170" y="345" width="30" height="30" as="geometry" />
        </mxCell>
        <mxCell id="9KCZVOldgZEE5MTUfetc-42" value="" style="endArrow=classic;html=1;rounded=0;strokeWidth=3;fillColor=#d5e8d4;strokeColor=#82b366;fontSize=18;labelPosition=center;verticalLabelPosition=bottom;align=center;verticalAlign=top;" parent="1" source="9KCZVOldgZEE5MTUfetc-41" target="9KCZVOldgZEE5MTUfetc-43" edge="1">
          <mxGeometry width="50" height="50" relative="1" as="geometry">
            <mxPoint x="420" y="360" as="sourcePoint" />
            <mxPoint x="670" y="360" as="targetPoint" />
          </mxGeometry>
        </mxCell>
        <mxCell id="9KCZVOldgZEE5MTUfetc-43" value="" style="ellipse;whiteSpace=wrap;html=1;aspect=fixed;fontSize=18;fillColor=#d5e8d4;strokeColor=#82b366;labelPosition=center;verticalLabelPosition=bottom;align=center;verticalAlign=top;" parent="1" vertex="1">
          <mxGeometry x="220" y="345" width="30" height="30" as="geometry" />
        </mxCell>
        <mxCell id="9KCZVOldgZEE5MTUfetc-44" value="" style="endArrow=classic;html=1;rounded=0;strokeWidth=3;fillColor=#d5e8d4;strokeColor=#82b366;fontSize=18;labelPosition=center;verticalLabelPosition=bottom;align=center;verticalAlign=top;" parent="1" source="9KCZVOldgZEE5MTUfetc-43" target="9KCZVOldgZEE5MTUfetc-45" edge="1">
          <mxGeometry width="50" height="50" relative="1" as="geometry">
            <mxPoint x="490" y="360" as="sourcePoint" />
            <mxPoint x="670" y="360" as="targetPoint" />
          </mxGeometry>
        </mxCell>
        <mxCell id="9KCZVOldgZEE5MTUfetc-45" value="" style="ellipse;whiteSpace=wrap;html=1;aspect=fixed;fontSize=18;fillColor=#d5e8d4;strokeColor=#82b366;labelPosition=center;verticalLabelPosition=bottom;align=center;verticalAlign=top;" parent="1" vertex="1">
          <mxGeometry x="270" y="345" width="30" height="30" as="geometry" />
        </mxCell>
        <mxCell id="9KCZVOldgZEE5MTUfetc-46" value="" style="endArrow=classic;html=1;rounded=0;strokeWidth=3;fillColor=#ffe6cc;strokeColor=#d79b00;fontSize=18;labelPosition=center;verticalLabelPosition=bottom;align=center;verticalAlign=top;" parent="1" source="9KCZVOldgZEE5MTUfetc-56" edge="1">
          <mxGeometry width="50" height="50" relative="1" as="geometry">
            <mxPoint x="39" y="475" as="sourcePoint" />
            <mxPoint x="779" y="480" as="targetPoint" />
          </mxGeometry>
        </mxCell>
        <mxCell id="9KCZVOldgZEE5MTUfetc-47" value="" style="endArrow=classic;html=1;rounded=0;strokeWidth=3;fillColor=#ffe6cc;strokeColor=#d79b00;fontSize=18;" parent="1" target="9KCZVOldgZEE5MTUfetc-48" edge="1">
          <mxGeometry width="50" height="50" relative="1" as="geometry">
            <mxPoint x="19" y="480" as="sourcePoint" />
            <mxPoint x="369" y="475" as="targetPoint" />
          </mxGeometry>
        </mxCell>
        <mxCell id="9KCZVOldgZEE5MTUfetc-48" value="" style="ellipse;whiteSpace=wrap;html=1;aspect=fixed;fontSize=18;fillColor=#ffe6cc;strokeColor=#d79b00;labelPosition=center;verticalLabelPosition=bottom;align=center;verticalAlign=top;" parent="1" vertex="1">
          <mxGeometry x="240" y="465" width="30" height="30" as="geometry" />
        </mxCell>
        <mxCell id="9KCZVOldgZEE5MTUfetc-49" value="" style="endArrow=classic;html=1;rounded=0;strokeWidth=3;fillColor=#ffe6cc;strokeColor=#d79b00;fontSize=18;labelPosition=center;verticalLabelPosition=bottom;align=center;verticalAlign=top;" parent="1" source="9KCZVOldgZEE5MTUfetc-48" target="9KCZVOldgZEE5MTUfetc-50" edge="1">
          <mxGeometry width="50" height="50" relative="1" as="geometry">
            <mxPoint x="179" y="480" as="sourcePoint" />
            <mxPoint x="369" y="480" as="targetPoint" />
          </mxGeometry>
        </mxCell>
        <mxCell id="9KCZVOldgZEE5MTUfetc-50" value="" style="ellipse;whiteSpace=wrap;html=1;aspect=fixed;fontSize=18;fillColor=#ffe6cc;strokeColor=#d79b00;labelPosition=center;verticalLabelPosition=bottom;align=center;verticalAlign=top;" parent="1" vertex="1">
          <mxGeometry x="319" y="465" width="30" height="30" as="geometry" />
        </mxCell>
        <mxCell id="9KCZVOldgZEE5MTUfetc-51" value="" style="endArrow=classic;html=1;rounded=0;strokeWidth=3;fillColor=#ffe6cc;strokeColor=#d79b00;fontSize=18;labelPosition=center;verticalLabelPosition=bottom;align=center;verticalAlign=top;" parent="1" source="9KCZVOldgZEE5MTUfetc-50" target="9KCZVOldgZEE5MTUfetc-54" edge="1">
          <mxGeometry width="50" height="50" relative="1" as="geometry">
            <mxPoint x="349" y="480" as="sourcePoint" />
            <mxPoint x="389" y="480" as="targetPoint" />
          </mxGeometry>
        </mxCell>
        <mxCell id="9KCZVOldgZEE5MTUfetc-54" value="" style="ellipse;whiteSpace=wrap;html=1;aspect=fixed;fontSize=18;fillColor=#ffe6cc;strokeColor=#d79b00;labelPosition=center;verticalLabelPosition=bottom;align=center;verticalAlign=top;" parent="1" vertex="1">
          <mxGeometry x="450" y="465" width="30" height="30" as="geometry" />
        </mxCell>
        <mxCell id="9KCZVOldgZEE5MTUfetc-55" value="" style="endArrow=classic;html=1;rounded=0;strokeWidth=3;fillColor=#ffe6cc;strokeColor=#d79b00;fontSize=18;labelPosition=center;verticalLabelPosition=bottom;align=center;verticalAlign=top;" parent="1" source="9KCZVOldgZEE5MTUfetc-76" target="9KCZVOldgZEE5MTUfetc-56" edge="1">
          <mxGeometry width="50" height="50" relative="1" as="geometry">
            <mxPoint x="489" y="480" as="sourcePoint" />
            <mxPoint x="669" y="480" as="targetPoint" />
          </mxGeometry>
        </mxCell>
        <mxCell id="9KCZVOldgZEE5MTUfetc-56" value="" style="ellipse;whiteSpace=wrap;html=1;aspect=fixed;fontSize=18;fillColor=#ffe6cc;strokeColor=#d79b00;labelPosition=center;verticalLabelPosition=bottom;align=center;verticalAlign=top;" parent="1" vertex="1">
          <mxGeometry x="730" y="465" width="30" height="30" as="geometry" />
        </mxCell>
        <mxCell id="9KCZVOldgZEE5MTUfetc-57" value="" style="endArrow=classic;html=1;rounded=0;strokeWidth=3;fillColor=#e1d5e7;strokeColor=#9673a6;fontSize=18;labelPosition=center;verticalLabelPosition=bottom;align=center;verticalAlign=top;" parent="1" source="9KCZVOldgZEE5MTUfetc-80" edge="1">
          <mxGeometry width="50" height="50" relative="1" as="geometry">
            <mxPoint x="40" y="595" as="sourcePoint" />
            <mxPoint x="780" y="600" as="targetPoint" />
          </mxGeometry>
        </mxCell>
        <mxCell id="9KCZVOldgZEE5MTUfetc-58" value="" style="endArrow=classic;html=1;rounded=0;strokeWidth=3;fillColor=#e1d5e7;strokeColor=#9673a6;fontSize=18;" parent="1" target="9KCZVOldgZEE5MTUfetc-59" edge="1">
          <mxGeometry width="50" height="50" relative="1" as="geometry">
            <mxPoint x="20" y="600" as="sourcePoint" />
            <mxPoint x="370" y="595" as="targetPoint" />
          </mxGeometry>
        </mxCell>
        <mxCell id="9KCZVOldgZEE5MTUfetc-59" value="" style="ellipse;whiteSpace=wrap;html=1;aspect=fixed;fontSize=18;fillColor=#e1d5e7;strokeColor=#9673a6;labelPosition=center;verticalLabelPosition=bottom;align=center;verticalAlign=top;" parent="1" vertex="1">
          <mxGeometry x="90" y="585" width="30" height="30" as="geometry" />
        </mxCell>
        <mxCell id="9KCZVOldgZEE5MTUfetc-60" value="" style="endArrow=classic;html=1;rounded=0;strokeWidth=3;fillColor=#e1d5e7;strokeColor=#9673a6;fontSize=18;labelPosition=center;verticalLabelPosition=bottom;align=center;verticalAlign=top;" parent="1" source="9KCZVOldgZEE5MTUfetc-59" target="9KCZVOldgZEE5MTUfetc-61" edge="1">
          <mxGeometry width="50" height="50" relative="1" as="geometry">
            <mxPoint x="180" y="600" as="sourcePoint" />
            <mxPoint x="370" y="600" as="targetPoint" />
          </mxGeometry>
        </mxCell>
        <mxCell id="9KCZVOldgZEE5MTUfetc-61" value="" style="ellipse;whiteSpace=wrap;html=1;aspect=fixed;fontSize=18;fillColor=#e1d5e7;strokeColor=#9673a6;labelPosition=center;verticalLabelPosition=bottom;align=center;verticalAlign=top;" parent="1" vertex="1">
          <mxGeometry x="160" y="585" width="30" height="30" as="geometry" />
        </mxCell>
        <mxCell id="9KCZVOldgZEE5MTUfetc-62" value="" style="endArrow=classic;html=1;rounded=0;strokeWidth=3;fillColor=#e1d5e7;strokeColor=#9673a6;fontSize=18;labelPosition=center;verticalLabelPosition=bottom;align=center;verticalAlign=top;" parent="1" source="9KCZVOldgZEE5MTUfetc-61" target="9KCZVOldgZEE5MTUfetc-63" edge="1">
          <mxGeometry width="50" height="50" relative="1" as="geometry">
            <mxPoint x="350" y="600" as="sourcePoint" />
            <mxPoint x="480" y="600" as="targetPoint" />
          </mxGeometry>
        </mxCell>
        <mxCell id="9KCZVOldgZEE5MTUfetc-63" value="" style="ellipse;whiteSpace=wrap;html=1;aspect=fixed;fontSize=18;fillColor=#e1d5e7;strokeColor=#9673a6;labelPosition=center;verticalLabelPosition=bottom;align=center;verticalAlign=top;" parent="1" vertex="1">
          <mxGeometry x="220" y="585" width="30" height="30" as="geometry" />
        </mxCell>
        <mxCell id="9KCZVOldgZEE5MTUfetc-64" value="" style="endArrow=classic;html=1;rounded=0;strokeWidth=3;fillColor=#e1d5e7;strokeColor=#9673a6;fontSize=18;labelPosition=center;verticalLabelPosition=bottom;align=center;verticalAlign=top;" parent="1" source="9KCZVOldgZEE5MTUfetc-63" target="9KCZVOldgZEE5MTUfetc-65" edge="1">
          <mxGeometry width="50" height="50" relative="1" as="geometry">
            <mxPoint x="420" y="600" as="sourcePoint" />
            <mxPoint x="670" y="600" as="targetPoint" />
          </mxGeometry>
        </mxCell>
        <mxCell id="9KCZVOldgZEE5MTUfetc-65" value="" style="ellipse;whiteSpace=wrap;html=1;aspect=fixed;fontSize=18;fillColor=#e1d5e7;strokeColor=#9673a6;labelPosition=center;verticalLabelPosition=bottom;align=center;verticalAlign=top;" parent="1" vertex="1">
          <mxGeometry x="460" y="585" width="30" height="30" as="geometry" />
        </mxCell>
        <mxCell id="9KCZVOldgZEE5MTUfetc-66" value="" style="endArrow=classic;html=1;rounded=0;strokeWidth=3;fillColor=#e1d5e7;strokeColor=#9673a6;fontSize=18;labelPosition=center;verticalLabelPosition=bottom;align=center;verticalAlign=top;" parent="1" source="9KCZVOldgZEE5MTUfetc-82" target="9KCZVOldgZEE5MTUfetc-67" edge="1">
          <mxGeometry width="50" height="50" relative="1" as="geometry">
            <mxPoint x="490" y="600" as="sourcePoint" />
            <mxPoint x="670" y="600" as="targetPoint" />
          </mxGeometry>
        </mxCell>
        <mxCell id="9KCZVOldgZEE5MTUfetc-67" value="" style="ellipse;whiteSpace=wrap;html=1;aspect=fixed;fontSize=18;fillColor=#e1d5e7;strokeColor=#9673a6;labelPosition=center;verticalLabelPosition=bottom;align=center;verticalAlign=top;" parent="1" vertex="1">
          <mxGeometry x="630" y="585" width="30" height="30" as="geometry" />
        </mxCell>
        <mxCell id="9KCZVOldgZEE5MTUfetc-69" value="" style="endArrow=classic;html=1;rounded=0;strokeWidth=3;fillColor=#f8cecc;strokeColor=#b85450;fontSize=18;labelPosition=center;verticalLabelPosition=bottom;align=center;verticalAlign=top;" parent="1" source="9KCZVOldgZEE5MTUfetc-70" target="9KCZVOldgZEE5MTUfetc-68" edge="1">
          <mxGeometry width="50" height="50" relative="1" as="geometry">
            <mxPoint x="500" y="240" as="sourcePoint" />
            <mxPoint x="710" y="240" as="targetPoint" />
          </mxGeometry>
        </mxCell>
        <mxCell id="9KCZVOldgZEE5MTUfetc-68" value="" style="ellipse;whiteSpace=wrap;html=1;aspect=fixed;fontSize=18;fillColor=#f8cecc;strokeColor=#b85450;labelPosition=center;verticalLabelPosition=bottom;align=center;verticalAlign=top;" parent="1" vertex="1">
          <mxGeometry x="660" y="225" width="30" height="30" as="geometry" />
        </mxCell>
        <mxCell id="9KCZVOldgZEE5MTUfetc-71" value="" style="endArrow=classic;html=1;rounded=0;strokeWidth=3;fillColor=#f8cecc;strokeColor=#b85450;fontSize=18;labelPosition=center;verticalLabelPosition=bottom;align=center;verticalAlign=top;" parent="1" source="9KCZVOldgZEE5MTUfetc-21" target="9KCZVOldgZEE5MTUfetc-70" edge="1">
          <mxGeometry width="50" height="50" relative="1" as="geometry">
            <mxPoint x="500" y="240" as="sourcePoint" />
            <mxPoint x="660" y="240" as="targetPoint" />
          </mxGeometry>
        </mxCell>
        <mxCell id="9KCZVOldgZEE5MTUfetc-70" value="" style="ellipse;whiteSpace=wrap;html=1;aspect=fixed;fontSize=18;fillColor=#f8cecc;strokeColor=#b85450;labelPosition=center;verticalLabelPosition=bottom;align=center;verticalAlign=top;" parent="1" vertex="1">
          <mxGeometry x="610" y="225" width="30" height="30" as="geometry" />
        </mxCell>
        <mxCell id="9KCZVOldgZEE5MTUfetc-73" value="" style="endArrow=classic;html=1;rounded=0;strokeWidth=3;fillColor=#d5e8d4;strokeColor=#82b366;fontSize=18;labelPosition=center;verticalLabelPosition=bottom;align=center;verticalAlign=top;" parent="1" source="9KCZVOldgZEE5MTUfetc-45" target="9KCZVOldgZEE5MTUfetc-72" edge="1">
          <mxGeometry width="50" height="50" relative="1" as="geometry">
            <mxPoint x="300" y="360" as="sourcePoint" />
            <mxPoint x="780" y="360" as="targetPoint" />
          </mxGeometry>
        </mxCell>
        <mxCell id="9KCZVOldgZEE5MTUfetc-72" value="" style="ellipse;whiteSpace=wrap;html=1;aspect=fixed;fontSize=18;fillColor=#d5e8d4;strokeColor=#82b366;labelPosition=center;verticalLabelPosition=bottom;align=center;verticalAlign=top;" parent="1" vertex="1">
          <mxGeometry x="320" y="345" width="30" height="30" as="geometry" />
        </mxCell>
        <mxCell id="9KCZVOldgZEE5MTUfetc-75" value="" style="endArrow=classic;html=1;rounded=0;strokeWidth=3;fillColor=#d5e8d4;strokeColor=#82b366;fontSize=18;labelPosition=center;verticalLabelPosition=bottom;align=center;verticalAlign=top;" parent="1" source="9KCZVOldgZEE5MTUfetc-72" target="9KCZVOldgZEE5MTUfetc-74" edge="1">
          <mxGeometry width="50" height="50" relative="1" as="geometry">
            <mxPoint x="340" y="360" as="sourcePoint" />
            <mxPoint x="780" y="360" as="targetPoint" />
          </mxGeometry>
        </mxCell>
        <mxCell id="9KCZVOldgZEE5MTUfetc-74" value="" style="ellipse;whiteSpace=wrap;html=1;aspect=fixed;fontSize=18;fillColor=#d5e8d4;strokeColor=#82b366;labelPosition=center;verticalLabelPosition=bottom;align=center;verticalAlign=top;" parent="1" vertex="1">
          <mxGeometry x="370" y="345" width="30" height="30" as="geometry" />
        </mxCell>
        <mxCell id="9KCZVOldgZEE5MTUfetc-77" value="" style="endArrow=classic;html=1;rounded=0;strokeWidth=3;fillColor=#ffe6cc;strokeColor=#d79b00;fontSize=18;labelPosition=center;verticalLabelPosition=bottom;align=center;verticalAlign=top;" parent="1" source="9KCZVOldgZEE5MTUfetc-91" target="9KCZVOldgZEE5MTUfetc-76" edge="1">
          <mxGeometry width="50" height="50" relative="1" as="geometry">
            <mxPoint x="489" y="480" as="sourcePoint" />
            <mxPoint x="730" y="480" as="targetPoint" />
          </mxGeometry>
        </mxCell>
        <mxCell id="9KCZVOldgZEE5MTUfetc-76" value="" style="ellipse;whiteSpace=wrap;html=1;aspect=fixed;fontSize=18;fillColor=#ffe6cc;strokeColor=#d79b00;labelPosition=center;verticalLabelPosition=bottom;align=center;verticalAlign=top;" parent="1" vertex="1">
          <mxGeometry x="680" y="465" width="30" height="30" as="geometry" />
        </mxCell>
        <mxCell id="9KCZVOldgZEE5MTUfetc-79" value="" style="endArrow=classic;html=1;rounded=0;strokeWidth=3;fillColor=#e1d5e7;strokeColor=#9673a6;fontSize=18;labelPosition=center;verticalLabelPosition=bottom;align=center;verticalAlign=top;" parent="1" source="9KCZVOldgZEE5MTUfetc-67" target="9KCZVOldgZEE5MTUfetc-78" edge="1">
          <mxGeometry width="50" height="50" relative="1" as="geometry">
            <mxPoint x="670" y="600" as="sourcePoint" />
            <mxPoint x="780" y="600" as="targetPoint" />
          </mxGeometry>
        </mxCell>
        <mxCell id="9KCZVOldgZEE5MTUfetc-78" value="" style="ellipse;whiteSpace=wrap;html=1;aspect=fixed;fontSize=18;fillColor=#e1d5e7;strokeColor=#9673a6;labelPosition=center;verticalLabelPosition=bottom;align=center;verticalAlign=top;" parent="1" vertex="1">
          <mxGeometry x="680" y="585" width="30" height="30" as="geometry" />
        </mxCell>
        <mxCell id="9KCZVOldgZEE5MTUfetc-81" value="" style="endArrow=classic;html=1;rounded=0;strokeWidth=3;fillColor=#e1d5e7;strokeColor=#9673a6;fontSize=18;labelPosition=center;verticalLabelPosition=bottom;align=center;verticalAlign=top;" parent="1" source="9KCZVOldgZEE5MTUfetc-78" target="9KCZVOldgZEE5MTUfetc-80" edge="1">
          <mxGeometry width="50" height="50" relative="1" as="geometry">
            <mxPoint x="710" y="600" as="sourcePoint" />
            <mxPoint x="780" y="600" as="targetPoint" />
          </mxGeometry>
        </mxCell>
        <mxCell id="9KCZVOldgZEE5MTUfetc-80" value="" style="ellipse;whiteSpace=wrap;html=1;aspect=fixed;fontSize=18;fillColor=#e1d5e7;strokeColor=#9673a6;labelPosition=center;verticalLabelPosition=bottom;align=center;verticalAlign=top;" parent="1" vertex="1">
          <mxGeometry x="730" y="585" width="30" height="30" as="geometry" />
        </mxCell>
        <mxCell id="9KCZVOldgZEE5MTUfetc-83" value="" style="endArrow=classic;html=1;rounded=0;strokeWidth=3;fillColor=#e1d5e7;strokeColor=#9673a6;fontSize=18;labelPosition=center;verticalLabelPosition=bottom;align=center;verticalAlign=top;" parent="1" source="9KCZVOldgZEE5MTUfetc-65" target="9KCZVOldgZEE5MTUfetc-82" edge="1">
          <mxGeometry width="50" height="50" relative="1" as="geometry">
            <mxPoint x="490" y="600" as="sourcePoint" />
            <mxPoint x="630" y="600" as="targetPoint" />
          </mxGeometry>
        </mxCell>
        <mxCell id="9KCZVOldgZEE5MTUfetc-82" value="" style="ellipse;whiteSpace=wrap;html=1;aspect=fixed;fontSize=18;fillColor=#e1d5e7;strokeColor=#9673a6;labelPosition=center;verticalLabelPosition=bottom;align=center;verticalAlign=top;" parent="1" vertex="1">
          <mxGeometry x="580" y="585" width="30" height="30" as="geometry" />
        </mxCell>
        <mxCell id="9KCZVOldgZEE5MTUfetc-84" value="feature branch 1" style="text;html=1;align=right;verticalAlign=middle;whiteSpace=wrap;rounded=0;fontStyle=1;fontSize=18;" parent="1" vertex="1">
          <mxGeometry x="-90" y="105" width="97" height="30" as="geometry" />
        </mxCell>
        <mxCell id="9KCZVOldgZEE5MTUfetc-85" value="feature branch 2" style="text;html=1;align=right;verticalAlign=middle;whiteSpace=wrap;rounded=0;fontStyle=1;fontSize=18;" parent="1" vertex="1">
          <mxGeometry x="-90" y="225" width="97" height="30" as="geometry" />
        </mxCell>
        <mxCell id="9KCZVOldgZEE5MTUfetc-86" value="feature branch 3" style="text;html=1;align=right;verticalAlign=middle;whiteSpace=wrap;rounded=0;fontStyle=1;fontSize=18;" parent="1" vertex="1">
          <mxGeometry x="-90" y="345" width="97" height="30" as="geometry" />
        </mxCell>
        <mxCell id="9KCZVOldgZEE5MTUfetc-87" value="feature branch 4" style="text;html=1;align=right;verticalAlign=middle;whiteSpace=wrap;rounded=0;fontStyle=1;fontSize=18;" parent="1" vertex="1">
          <mxGeometry x="-90" y="465" width="97" height="30" as="geometry" />
        </mxCell>
        <mxCell id="9KCZVOldgZEE5MTUfetc-88" value="feature branch 5" style="text;html=1;align=right;verticalAlign=middle;whiteSpace=wrap;rounded=0;fontStyle=1;fontSize=18;" parent="1" vertex="1">
          <mxGeometry x="-90" y="585" width="97" height="30" as="geometry" />
        </mxCell>
        <mxCell id="9KCZVOldgZEE5MTUfetc-90" value="" style="endArrow=classic;html=1;rounded=0;strokeWidth=3;fillColor=#ffe6cc;strokeColor=#d79b00;fontSize=18;labelPosition=center;verticalLabelPosition=bottom;align=center;verticalAlign=top;" parent="1" source="9KCZVOldgZEE5MTUfetc-54" target="9KCZVOldgZEE5MTUfetc-89" edge="1">
          <mxGeometry width="50" height="50" relative="1" as="geometry">
            <mxPoint x="489" y="480" as="sourcePoint" />
            <mxPoint x="680" y="480" as="targetPoint" />
          </mxGeometry>
        </mxCell>
        <mxCell id="9KCZVOldgZEE5MTUfetc-89" value="" style="ellipse;whiteSpace=wrap;html=1;aspect=fixed;fontSize=18;fillColor=#ffe6cc;strokeColor=#d79b00;labelPosition=center;verticalLabelPosition=bottom;align=center;verticalAlign=top;" parent="1" vertex="1">
          <mxGeometry x="500" y="465" width="30" height="30" as="geometry" />
        </mxCell>
        <mxCell id="9KCZVOldgZEE5MTUfetc-92" value="" style="endArrow=classic;html=1;rounded=0;strokeWidth=3;fillColor=#ffe6cc;strokeColor=#d79b00;fontSize=18;labelPosition=center;verticalLabelPosition=bottom;align=center;verticalAlign=top;" parent="1" source="9KCZVOldgZEE5MTUfetc-89" target="9KCZVOldgZEE5MTUfetc-91" edge="1">
          <mxGeometry width="50" height="50" relative="1" as="geometry">
            <mxPoint x="530" y="480" as="sourcePoint" />
            <mxPoint x="680" y="480" as="targetPoint" />
          </mxGeometry>
        </mxCell>
        <mxCell id="9KCZVOldgZEE5MTUfetc-91" value="" style="ellipse;whiteSpace=wrap;html=1;aspect=fixed;fontSize=18;fillColor=#ffe6cc;strokeColor=#d79b00;labelPosition=center;verticalLabelPosition=bottom;align=center;verticalAlign=top;" parent="1" vertex="1">
          <mxGeometry x="550" y="465" width="30" height="30" as="geometry" />
        </mxCell>
        <mxCell id="9KCZVOldgZEE5MTUfetc-94" value="" style="endArrow=classic;html=1;rounded=0;strokeWidth=3;" parent="1" edge="1">
          <mxGeometry width="50" height="50" relative="1" as="geometry">
            <mxPoint x="20" y="720" as="sourcePoint" />
            <mxPoint x="1090" y="720" as="targetPoint" />
          </mxGeometry>
        </mxCell>
        <mxCell id="9KCZVOldgZEE5MTUfetc-95" value="release branch" style="text;html=1;align=right;verticalAlign=middle;whiteSpace=wrap;rounded=0;fontStyle=1;fontSize=18;" parent="1" vertex="1">
          <mxGeometry x="-90" y="705" width="97" height="30" as="geometry" />
        </mxCell>
        <mxCell id="9KCZVOldgZEE5MTUfetc-97" value="Merge&amp;nbsp;&lt;div&gt;conflict!&lt;/div&gt;" style="verticalLabelPosition=middle;verticalAlign=middle;html=1;shape=mxgraph.basic.8_point_star;labelPosition=center;align=center;fontStyle=1;fontSize=23;fillColor=#f8cecc;strokeColor=#b85450;strokeWidth=3;" parent="1" vertex="1">
          <mxGeometry x="1050" y="617.5" width="210" height="205" as="geometry" />
        </mxCell>
        <mxCell id="9KCZVOldgZEE5MTUfetc-98" value="" style="endArrow=classic;html=1;rounded=0;dashed=1;fillColor=#f5f5f5;strokeColor=#666666;" parent="1" edge="1">
          <mxGeometry width="50" height="50" relative="1" as="geometry">
            <mxPoint x="780" y="120" as="sourcePoint" />
            <mxPoint x="1106" y="594" as="targetPoint" />
          </mxGeometry>
        </mxCell>
        <mxCell id="9KCZVOldgZEE5MTUfetc-99" value="" style="endArrow=classic;html=1;rounded=0;dashed=1;fillColor=#f5f5f5;strokeColor=#666666;" parent="1" edge="1">
          <mxGeometry width="50" height="50" relative="1" as="geometry">
            <mxPoint x="780" y="240" as="sourcePoint" />
            <mxPoint x="1100" y="600" as="targetPoint" />
          </mxGeometry>
        </mxCell>
        <mxCell id="9KCZVOldgZEE5MTUfetc-100" value="" style="endArrow=classic;html=1;rounded=0;dashed=1;fillColor=#f5f5f5;strokeColor=#666666;" parent="1" edge="1">
          <mxGeometry width="50" height="50" relative="1" as="geometry">
            <mxPoint x="780" y="360" as="sourcePoint" />
            <mxPoint x="1094" y="605" as="targetPoint" />
          </mxGeometry>
        </mxCell>
        <mxCell id="9KCZVOldgZEE5MTUfetc-101" value="" style="endArrow=classic;html=1;rounded=0;dashed=1;fillColor=#f5f5f5;strokeColor=#666666;" parent="1" edge="1">
          <mxGeometry width="50" height="50" relative="1" as="geometry">
            <mxPoint x="780" y="480" as="sourcePoint" />
            <mxPoint x="1088" y="612" as="targetPoint" />
          </mxGeometry>
        </mxCell>
        <mxCell id="9KCZVOldgZEE5MTUfetc-102" value="" style="endArrow=classic;html=1;rounded=0;dashed=1;fillColor=#f5f5f5;strokeColor=#666666;" parent="1" edge="1">
          <mxGeometry width="50" height="50" relative="1" as="geometry">
            <mxPoint x="780" y="600" as="sourcePoint" />
            <mxPoint x="1085" y="621" as="targetPoint" />
          </mxGeometry>
        </mxCell>
        <mxCell id="ItWbkMGqzN4ZVB6tgIPz-2" value="" style="ellipse;whiteSpace=wrap;html=1;aspect=fixed;fontSize=18;fillColor=#f5f5f5;strokeColor=#666666;labelPosition=center;verticalLabelPosition=bottom;align=center;verticalAlign=top;fontColor=#333333;" vertex="1" parent="1">
          <mxGeometry x="990" y="105" width="30" height="30" as="geometry" />
        </mxCell>
        <mxCell id="ItWbkMGqzN4ZVB6tgIPz-3" value="=&amp;nbsp; &amp;nbsp;Commit" style="text;html=1;align=center;verticalAlign=middle;whiteSpace=wrap;rounded=0;fontSize=18;" vertex="1" parent="1">
          <mxGeometry x="1040" y="105" width="90" height="30" as="geometry" />
        </mxCell>
      </root>
    </mxGraphModel>
  </diagram>
</mxfile>
